<svg id="Layer_1" data-name="Layer 1" xmlns="http://www.w3.org/2000/svg" viewBox="0 0 128 128"><title>GARLANDS</title><rect x="15.712" y="43.594" width="5.664" height="5.664" transform="translate(-27.396 26.71) rotate(-45)" style="fill:#f9d12f"/><rect x="82.223" y="21.075" width="5.664" height="5.664" transform="translate(8.008 67.146) rotate(-45.001)" style="fill:#2ec3fc"/><path d="M50.769,69.747a2.324,2.324,0,1,0-2.323-2.324A2.326,2.326,0,0,0,50.769,69.747Z" style="fill:#2ec3fc"/><path d="M50.769,72.9a2.324,2.324,0,1,0,2.323,2.324A2.326,2.326,0,0,0,50.769,72.9Z" style="fill:#2ec3fc"/><path d="M49.2,71.321a2.324,2.324,0,1,0-2.324,2.324A2.327,2.327,0,0,0,49.2,71.321Z" style="fill:#2ec3fc"/><path d="M54.668,69a2.324,2.324,0,1,0,2.323,2.324A2.327,2.327,0,0,0,54.668,69Z" style="fill:#2ec3fc"/><path d="M107.72,98.083a2.324,2.324,0,1,0-2.324-2.324A2.326,2.326,0,0,0,107.72,98.083Z" style="fill:#f9d12f"/><path d="M107.72,101.231a2.324,2.324,0,1,0,2.323,2.324A2.327,2.327,0,0,0,107.72,101.231Z" style="fill:#f9d12f"/><path d="M106.145,99.657a2.324,2.324,0,1,0-2.324,2.323A2.327,2.327,0,0,0,106.145,99.657Z" style="fill:#f9d12f"/><path d="M111.617,97.334a2.324,2.324,0,1,0,2.324,2.324A2.326,2.326,0,0,0,111.617,97.334Z" style="fill:#f9d12f"/><path d="M32.865,62.07a1.772,1.772,0,0,1-.318-.029A1.751,1.751,0,0,1,31.142,60c1.135-6.18,3.663-10.333,6.526-12.687q0-.4.021-.826c.535-12.036,10.065-15.711,10.471-15.862a1.75,1.75,0,0,1,1.224,3.279,13.82,13.82,0,0,0-8.09,11.4,7.825,7.825,0,0,1,2.665-.367c2.8.109,4.85,1.861,5.108,4.358a5.87,5.87,0,0,1-2.7,5.513,5.217,5.217,0,0,1-5.441.3,5.985,5.985,0,0,1-2.647-3.444,20,20,0,0,0-3.69,8.97A1.752,1.752,0,0,1,32.865,62.07Zm8.4-12.971c.283,2.146,1.092,2.8,1.392,2.971a1.788,1.788,0,0,0,1.794-.189,2.4,2.4,0,0,0,1.134-2.22c-.112-1.074-1.379-1.206-1.765-1.222A5.284,5.284,0,0,0,41.268,49.1Z" style="fill:#fd852b"/><path d="M78.819,74.072a1.752,1.752,0,0,1-1.656-2.316,20,20,0,0,0,1.167-9.629,5.984,5.984,0,0,1-3.994,1.709,5.253,5.253,0,0,1-4.6-2.919,5.867,5.867,0,0,1,.338-6.129c1.447-2.053,4.1-2.575,6.587-1.3A7.98,7.98,0,0,1,78.8,55.106a13.819,13.819,0,0,0-1.483-13.9,1.75,1.75,0,0,1,2.673-2.26c.279.33,6.795,8.2,1.378,18.957q-.192.38-.386.731c1.347,3.453,1.521,8.312-.511,14.257A1.752,1.752,0,0,1,78.819,74.072ZM73.944,56.3a1.174,1.174,0,0,0-1.013.506,2.4,2.4,0,0,0-.1,2.489A1.8,1.8,0,0,0,74.3,60.335h.011c.345,0,1.37-.178,2.667-1.911A5.185,5.185,0,0,0,75.068,56.6,2.652,2.652,0,0,0,73.944,56.3Z" style="fill:#fd852b"/><path d="M30.325,19.782l-8.664,12.9,7.838-.993,2.044,7.631,8.175-12.168A65.289,65.289,0,0,1,30.325,19.782Z" style="fill:#fd748c"/><path d="M89.059,40.035,90.24,54.647l5.514-5.657,6.352,4.7L100.855,38.2A65.3,65.3,0,0,1,89.059,40.035Z" style="fill:#f9d12f"/><path d="M63.376,37.471c-1.947-.508-3.842-1.092-5.7-1.718L53.864,50.336l7.072-3.522,4.447,6.53L69.191,38.76C67.261,38.4,65.323,37.979,63.376,37.471Z" style="fill:#2ec3fc"/><path d="M65.137,85.029c-2.609.458-5.195.779-7.75.991L67.7,99.657l5.059-16.332C70.287,83.995,67.746,84.571,65.137,85.029Z" style="fill:#f9d12f"/><path d="M88.372,77.322,102.961,86.4l-1.88-17.584A64.775,64.775,0,0,1,88.372,77.322Z" style="fill:#fd748c"/><path d="M25.824,82.02l4.213,17.169,10.632-13.5A64.825,64.825,0,0,1,25.824,82.02Z" style="fill:#2ec3fc"/><path d="M46.9,120.251a1.75,1.75,0,0,1-1.7-1.322c-1.54-6.092-.969-10.919.655-14.251q-.164-.365-.324-.76c-4.519-11.168,2.617-18.475,2.924-18.781a1.75,1.75,0,0,1,2.477,2.472,13.823,13.823,0,0,0-2.615,13.736A7.968,7.968,0,0,1,50.589,99.9c2.589-1.063,5.184-.326,6.459,1.837a5.869,5.869,0,0,1-.165,6.138,5.219,5.219,0,0,1-4.825,2.533,5.985,5.985,0,0,1-3.841-2.03,20.005,20.005,0,0,0,.376,9.692,1.751,1.751,0,0,1-1.7,2.179ZM49.87,104.8c1.15,1.834,2.158,2.092,2.5,2.123A1.851,1.851,0,0,0,53.925,106a2.4,2.4,0,0,0,.107-2.49c-.548-.93-1.756-.524-2.112-.377A5.174,5.174,0,0,0,49.87,104.8Z" style="fill:#fd852b"/><path d="M93.678,112.046a1.749,1.749,0,0,1-1.739-1.576,20.005,20.005,0,0,0-2.944-9.243,5.989,5.989,0,0,1-2.922,3.217,5.217,5.217,0,0,1-5.4-.741,5.868,5.868,0,0,1-2.242-5.715c.462-2.467,2.644-4.039,5.447-3.926a7.968,7.968,0,0,1,2.627.584A13.819,13.819,0,0,0,79.371,82.62a1.75,1.75,0,0,1,1.49-3.166c.392.183,9.59,4.627,9.14,16.665-.011.284-.026.559-.047.825,2.661,2.581,4.842,6.926,5.467,13.178a1.75,1.75,0,0,1-1.567,1.915C93.795,112.043,93.735,112.046,93.678,112.046ZM83.6,97.557c-.482,0-1.551.112-1.731,1.076a2.4,2.4,0,0,0,.948,2.3,1.794,1.794,0,0,0,1.772.335c.312-.146,1.173-.732,1.631-2.848a5.18,5.18,0,0,0-2.493-.865C83.693,97.558,83.65,97.557,83.6,97.557Z" style="fill:#fd852b"/><path d="M39.165,85.448c-1.952-.3-3.865-.653-5.716-1.1L30.038,99.188,39.846,86.73Z" style="fill:#1ba4fc"/><polygon points="67.703 99.657 65.137 85.029 72.762 83.325 67.703 99.657" style="fill:#f8b62b"/><polygon points="102.961 86.4 101.08 68.816 94.583 73.312 102.961 86.4" style="fill:#ec4d85"/><path d="M50.61,88.055c-13.689,0-26.447-3.393-35.8-9.765A1.75,1.75,0,1,1,16.78,75.4c11.94,8.135,29.906,11.092,48.055,7.908,18.284-3.206,34.228-12.179,42.65-24a1.751,1.751,0,0,1,2.851,2.031c-8.944,12.554-25.728,22.056-44.9,25.417A86.024,86.024,0,0,1,50.61,88.055Z" style="fill:#fd852b"/><polygon points="95.755 48.989 95 38.327 100.855 38.204 102.106 53.688 95.755 48.989" style="fill:#f8b62b"/><polygon points="60.935 46.814 63.376 37.471 69.191 38.76 65.382 53.344 60.935 46.814" style="fill:#1ba4fc"/><polygon points="29.499 31.685 34.942 23.748 39.718 27.149 31.543 39.317 29.499 31.685" style="fill:#ec4d85"/><path d="M84.214,41.951a84.6,84.6,0,0,1-21.28-2.787c-18.69-4.881-34.586-15.632-42.521-28.759a1.75,1.75,0,0,1,3-1.811c7.474,12.365,22.581,22.526,40.41,27.183,17.958,4.69,36.191,3.165,48.768-4.082a1.75,1.75,0,1,1,1.748,3.032C106.052,39.5,95.515,41.951,84.214,41.951Z" style="fill:#fd852b"/></svg>