<?xml version="1.0" encoding="iso-8859-1"?>
<!-- Generator: Adobe Illustrator 19.0.0, SVG Export Plug-In . SVG Version: 6.00 Build 0)  -->
<svg version="1.1" id="Layer_1" xmlns="http://www.w3.org/2000/svg" xmlns:xlink="http://www.w3.org/1999/xlink" x="0px" y="0px"
	 viewBox="0 0 511.999 511.999" style="enable-background:new 0 0 511.999 511.999;" xml:space="preserve">
<g>
	<path style="fill:#2BA5F7;" d="M469.015,221.986c-5.171,0-9.362-4.192-9.362-9.362v-10.998c0-5.171,4.192-9.362,9.362-9.362
		c5.171,0,9.362,4.192,9.362,9.362v10.998C478.377,217.794,474.185,221.986,469.015,221.986z"/>
	<path style="fill:#2BA5F7;" d="M469.015,278.232c-5.171,0-9.362-4.192-9.362-9.362v-10.998c0-5.171,4.192-9.362,9.362-9.362
		c5.171,0,9.362,4.192,9.362,9.362v10.998C478.377,274.04,474.185,278.232,469.015,278.232z"/>
	<path style="fill:#2BA5F7;" d="M502.637,244.611h-10.998c-5.171,0-9.362-4.192-9.362-9.362s4.192-9.362,9.362-9.362h10.998
		c5.171,0,9.362,4.192,9.362,9.362S507.808,244.611,502.637,244.611z"/>
	<path style="fill:#2BA5F7;" d="M446.39,244.611h-10.998c-5.171,0-9.362-4.192-9.362-9.362s4.192-9.362,9.362-9.362h10.998
		c5.171,0,9.362,4.192,9.362,9.362S451.561,244.611,446.39,244.611z"/>
	<path style="fill:#2BA5F7;" d="M392.82,42.763c-5.171,0-9.362-4.192-9.362-9.362v-8.466c0-5.171,4.192-9.362,9.362-9.362
		c5.171,0,9.362,4.192,9.362,9.362v8.466C402.183,38.571,397.991,42.763,392.82,42.763z"/>
	<path style="fill:#2BA5F7;" d="M392.82,86.06c-5.171,0-9.362-4.192-9.362-9.362v-8.465c0-5.171,4.192-9.362,9.362-9.362
		c5.171,0,9.362,4.192,9.362,9.362v8.466C402.183,81.869,397.991,86.06,392.82,86.06z"/>
	<path style="fill:#2BA5F7;" d="M418.703,60.18h-8.466c-5.171,0-9.362-4.192-9.362-9.362s4.192-9.362,9.362-9.362h8.466
		c5.171,0,9.362,4.192,9.362,9.362S423.873,60.18,418.703,60.18z"/>
	<path style="fill:#2BA5F7;" d="M375.405,60.18h-8.466c-5.171,0-9.362-4.192-9.362-9.362s4.192-9.362,9.362-9.362h8.466
		c5.171,0,9.362,4.192,9.362,9.362S380.576,60.18,375.405,60.18z"/>
</g>
<path style="fill:#CC1B5B;" d="M482.56,131.778c-14.765,0-26.778-12.013-26.778-26.778c0-14.766,12.013-26.779,26.778-26.779
	c14.766,0,26.779,12.013,26.779,26.779C509.339,119.764,497.327,131.778,482.56,131.778z M482.56,96.946
	c-4.44,0-8.053,3.613-8.053,8.054c0,4.44,3.613,8.053,8.053,8.053c4.442,0,8.054-3.613,8.054-8.053
	C490.615,100.559,487.002,96.946,482.56,96.946z"/>
<g>
	<path style="fill:#F7B239;" d="M273.57,85.69c-14.766,0-26.779-12.013-26.779-26.779c0-14.765,12.013-26.778,26.779-26.778
		c14.765,0,26.778,12.013,26.778,26.778C300.348,73.678,288.335,85.69,273.57,85.69z M273.57,50.859
		c-4.441,0-8.054,3.613-8.054,8.053c0,4.442,3.613,8.054,8.054,8.054c4.44,0,8.053-3.613,8.053-8.054
		C281.623,54.471,278.01,50.859,273.57,50.859z"/>
	<circle style="fill:#F7B239;" cx="169.633" cy="143.119" r="9.362"/>
</g>
<circle style="fill:#CC1B5B;" cx="261.384" cy="116.904" r="9.362"/>
<circle style="fill:#2BA5F7;" cx="373.72" cy="137.502" r="9.362"/>
<circle style="fill:#F7B239;" cx="373.72" cy="334.111" r="9.362"/>
<path style="fill:#CC1B5B;" d="M308.795,142.436c-1.698,0-3.415-0.462-4.961-1.429c-4.383-2.744-5.71-8.522-2.965-12.904
	c10.007-15.975,18.333-31.607,24.747-46.461c2.05-4.746,7.557-6.934,12.307-4.883c4.747,2.05,6.933,7.56,4.883,12.307
	c-6.79,15.721-15.56,32.2-26.067,48.976C314.962,140.88,311.913,142.436,308.795,142.436z"/>
<path style="fill:#2BA5F7;" d="M221.002,249.875c-2.497,0-4.987-0.992-6.83-2.957c-3.538-3.771-3.349-9.696,0.421-13.233
	c0.313-0.295,31.737-29.933,63.095-71.879c3.096-4.141,8.962-4.988,13.105-1.892c4.141,3.096,4.99,8.963,1.892,13.105
	c-32.396,43.334-63.954,73.079-65.282,74.325C225.597,249.036,223.298,249.875,221.002,249.875z"/>
<path style="fill:#F7B239;" d="M281.737,259.778c-2.542,0-5.074-1.029-6.922-3.056c-3.483-3.821-3.209-9.743,0.613-13.226
	c32.12-29.279,95.742-81.262,160.935-100.448c4.961-1.461,10.165,1.378,11.626,6.338s-1.378,10.165-6.338,11.626
	c-61.593,18.127-122.678,68.131-153.609,96.325C286.247,258.971,283.988,259.778,281.737,259.778z"/>
<g>
	<path style="fill:#CC1B5B;" d="M293.343,322.198c-2.763,0-5.499-1.216-7.345-3.548c-3.206-4.048-2.535-9.923,1.508-13.135
		c2.317-1.841,57.595-44.928,132.112-30.6c5.077,0.976,8.402,5.885,7.426,10.963c-0.976,5.077-5.883,8.401-10.963,7.426
		c-65.85-12.663-116.433,26.484-116.937,26.881C297.424,321.539,295.376,322.198,293.343,322.198z"/>
	<path style="fill:#CC1B5B;" d="M200.296,193.862c-1.412,0-2.846-0.321-4.194-0.997c-4.621-2.321-6.485-7.948-4.166-12.568
		c10.924-21.754,22.315-56.172,14.54-96.596c-0.976-5.078,2.348-9.987,7.426-10.963c5.081-0.972,9.987,2.349,10.963,7.426
		c8.767,45.59-3.967,84.185-16.194,108.535C207.026,191.972,203.724,193.862,200.296,193.862z"/>
</g>
<polygon style="fill:#2BA5F7;" points="47.073,411.417 67.196,458.241 9.362,487.065 "/>
<polygon style="fill:#F7B239;" points="47.073,411.417 87.506,330.314 129.212,427.333 67.196,458.241 "/>
<polygon style="fill:#2BA5F7;" points="127.939,249.186 191.241,396.412 129.212,427.333 87.506,330.314 "/>
<polygon style="fill:#F7B239;" points="279.41,352.471 191.241,396.412 127.939,249.186 143.968,217.029 "/>
<path d="M303.03,362.852l-169.45-169.45c-3.656-3.656-9.585-3.656-13.24,0c-3.656,3.656-3.656,9.585,0,13.24l12.242,12.242
	L0.983,482.888c-1.795,3.603-1.087,7.951,1.759,10.797c1.798,1.798,4.194,2.743,6.624,2.743c1.417,0,2.846-0.321,4.173-0.984
	l57.834-28.824l0,0l206.18-102.764l12.236,12.236c1.828,1.828,4.224,2.743,6.62,2.743s4.792-0.914,6.62-2.743
	C306.687,372.437,306.687,366.509,303.03,362.852z M97.819,330.597l29.494-59.168l51.834,120.553l-45.245,22.551L97.819,330.597z
	 M117.116,422.899l-45.23,22.543l-14.498-33.736l29.488-59.155L117.116,422.899z M46.443,433.663l8.657,20.145l-24.881,12.401
	L46.443,433.663z M195.931,383.616l-57.676-134.14l8.289-16.629l117.047,117.047L195.931,383.616z"/>
<g>
</g>
<g>
</g>
<g>
</g>
<g>
</g>
<g>
</g>
<g>
</g>
<g>
</g>
<g>
</g>
<g>
</g>
<g>
</g>
<g>
</g>
<g>
</g>
<g>
</g>
<g>
</g>
<g>
</g>
</svg>
