<?xml version="1.0" encoding="iso-8859-1"?>
<!-- Generator: Adobe Illustrator 19.0.0, SVG Export Plug-In . SVG Version: 6.00 Build 0)  -->
<svg version="1.1" id="Layer_1" xmlns="http://www.w3.org/2000/svg" xmlns:xlink="http://www.w3.org/1999/xlink" x="0px" y="0px"
	 viewBox="0 0 512 512" style="enable-background:new 0 0 512 512;" xml:space="preserve">
<path style="fill:#E09B2D;" d="M501.196,443.079c0,30.345-109.77,54.943-245.19,54.943S10.801,473.424,10.801,443.079
	c0-11.176,14.877-21.574,40.44-30.244c43.868-14.891,119.203-24.713,204.764-24.713c85.575,0,160.911,9.822,204.779,24.713
	C486.333,421.505,501.196,431.904,501.196,443.079z"/>
<path style="fill:#B27214;" d="M460.784,412.836c-43.868,14.877-119.203,24.699-204.779,24.699
	c-85.561,0-160.897-9.822-204.764-24.699c43.868-14.891,119.203-24.713,204.764-24.713
	C341.581,388.122,416.917,397.944,460.784,412.836z"/>
<g>
	<polygon style="fill:#E09B2D;" points="378.608,95.594 417.133,164.592 378.594,233.649 340.069,164.607 	"/>
	<polygon style="fill:#E09B2D;" points="133.404,95.594 171.943,164.607 133.404,233.649 94.864,164.607 	"/>
</g>
<path style="fill:#F7B239;" d="M501.196,13.979v429.101c0-30.359-109.77-54.957-245.19-54.957S10.801,412.72,10.801,443.079V13.979
	l84.063,150.628l38.539,69.042l38.539-69.042l84.063-150.628l84.063,150.628l38.525,69.042l38.539-69.056L501.196,13.979z"/>
<g>
	<path style="fill:#FFFFFF;" d="M256,289.289c-5.965,0-10.801-4.836-10.801-10.801v-12.606c0-5.965,4.836-10.801,10.801-10.801
		c5.965,0,10.801,4.836,10.801,10.801v12.606C266.801,284.453,261.965,289.289,256,289.289z"/>
	<path style="fill:#FFFFFF;" d="M256,353.761c-5.965,0-10.801-4.836-10.801-10.801v-12.606c0-5.965,4.836-10.801,10.801-10.801
		c5.965,0,10.801,4.836,10.801,10.801v12.606C266.801,348.925,261.965,353.761,256,353.761z"/>
	<path style="fill:#FFFFFF;" d="M294.541,315.222h-12.606c-5.967,0-10.801-4.836-10.801-10.801s4.835-10.801,10.801-10.801h12.606
		c5.967,0,10.801,4.836,10.801,10.801S300.506,315.222,294.541,315.222z"/>
	<path style="fill:#FFFFFF;" d="M230.068,315.222h-12.606c-5.965,0-10.801-4.836-10.801-10.801s4.836-10.801,10.801-10.801h12.606
		c5.965,0,10.801,4.836,10.801,10.801S236.033,315.222,230.068,315.222z"/>
	<path style="fill:#FFFFFF;" d="M462.66,289.289c-5.967,0-10.801-4.836-10.801-10.801v-12.606c0-5.965,4.835-10.801,10.801-10.801
		c5.967,0,10.801,4.836,10.801,10.801v12.606C473.461,284.453,468.626,289.289,462.66,289.289z"/>
	<path style="fill:#FFFFFF;" d="M462.66,353.761c-5.967,0-10.801-4.836-10.801-10.801v-12.606c0-5.965,4.835-10.801,10.801-10.801
		c5.967,0,10.801,4.836,10.801,10.801v12.606C473.461,348.925,468.626,353.761,462.66,353.761z"/>
	<path style="fill:#FFFFFF;" d="M501.199,315.222h-12.606c-5.967,0-10.801-4.836-10.801-10.801s4.835-10.801,10.801-10.801h12.606
		c5.967,0,10.801,4.836,10.801,10.801S507.164,315.222,501.199,315.222z"/>
	<path style="fill:#FFFFFF;" d="M436.725,315.222h-12.606c-5.967,0-10.801-4.836-10.801-10.801s4.835-10.801,10.801-10.801h12.606
		c5.967,0,10.801,4.836,10.801,10.801S442.692,315.222,436.725,315.222z"/>
	<path style="fill:#FFFFFF;" d="M49.343,289.289c-5.965,0-10.801-4.836-10.801-10.801v-12.606c0-5.965,4.836-10.801,10.801-10.801
		s10.801,4.836,10.801,10.801v12.606C60.145,284.453,55.309,289.289,49.343,289.289z"/>
	<path style="fill:#FFFFFF;" d="M49.343,353.761c-5.965,0-10.801-4.836-10.801-10.801v-12.606c0-5.965,4.836-10.801,10.801-10.801
		s10.801,4.836,10.801,10.801v12.606C60.145,348.925,55.309,353.761,49.343,353.761z"/>
	<path style="fill:#FFFFFF;" d="M87.882,315.222H75.277c-5.965,0-10.801-4.836-10.801-10.801s4.836-10.801,10.801-10.801h12.606
		c5.965,0,10.801,4.836,10.801,10.801S93.848,315.222,87.882,315.222z"/>
	<path style="fill:#FFFFFF;" d="M23.409,315.222H10.803c-5.965,0-10.801-4.836-10.801-10.801s4.836-10.801,10.801-10.801h12.606
		c5.965,0,10.801,4.836,10.801,10.801S29.374,315.222,23.409,315.222z"/>
</g>
<path d="M503.915,3.526c-4.76-1.236-9.754,0.896-12.152,5.189l-74.631,133.719l-29.093-52.106c-1.908-3.418-5.517-5.536-9.432-5.536
	s-7.522,2.117-9.43,5.535l-29.107,52.124L265.438,8.715c-1.907-3.419-5.516-5.537-9.432-5.537c-3.916,0-7.523,2.118-9.432,5.537
	l-74.636,133.729l-29.105-52.117c-1.908-3.418-5.517-5.535-9.43-5.535c-3.913,0-7.522,2.119-9.43,5.535l-29.105,52.117L20.233,8.715
	c-2.398-4.295-7.391-6.426-12.152-5.19C3.322,4.765,0,9.061,0,13.979v429.101c0,21.133,26.253,37.29,80.26,49.391
	c47.065,10.545,109.479,16.353,175.746,16.353s128.678-5.808,175.739-16.353c54.001-12.1,80.252-28.256,80.252-49.391V13.979
	C511.997,9.062,508.675,4.765,503.915,3.526z M378.607,117.749l26.156,46.846l-26.169,46.888l-26.156-46.871L378.607,117.749z
	 M133.404,117.748l26.167,46.858l-26.167,46.882l-26.167-46.884L133.404,117.748z M123.972,238.914
	c1.908,3.419,5.517,5.536,9.432,5.536c3.914,0,7.523-2.118,9.432-5.537l113.171-202.77L369.16,238.911
	c1.908,3.419,5.517,5.539,9.433,5.539s7.525-2.118,9.432-5.537L490.395,55.493v358.474c-13.297-7.761-32.78-14.492-58.65-20.291
	c-47.058-10.546-109.471-16.355-175.739-16.355c-66.27,0-128.684,5.808-175.746,16.355c-25.873,5.798-45.358,12.531-58.657,20.292
	V55.498L123.972,238.914z M427.021,471.39c-45.557,10.208-106.291,15.83-171.015,15.83s-125.462-5.622-171.022-15.83
	c-51.737-11.593-63.381-24.652-63.381-28.311c0-3.662,11.644-16.729,63.381-28.324c45.557-10.209,106.295-15.832,171.022-15.832
	s125.461,5.622,171.015,15.832c51.731,11.593,63.374,24.66,63.374,28.324C490.395,446.739,478.752,459.798,427.021,471.39z"/>
<g>
</g>
<g>
</g>
<g>
</g>
<g>
</g>
<g>
</g>
<g>
</g>
<g>
</g>
<g>
</g>
<g>
</g>
<g>
</g>
<g>
</g>
<g>
</g>
<g>
</g>
<g>
</g>
<g>
</g>
</svg>
