<svg width="96" height="96" viewBox="0 0 96 96" fill="none" xmlns="http://www.w3.org/2000/svg">
<path d="M20 50C20 48.8954 20.8954 48 22 48H74C75.1046 48 76 48.8954 76 50V76C76 80.4183 72.4183 84 68 84H28C23.5817 84 20 80.4183 20 76V50Z" fill="#F6BE2F"/>
<path fill-rule="evenodd" clip-rule="evenodd" d="M22 46H74C76.2091 46 78 47.7909 78 50V76C78 81.5228 73.5228 86 68 86H28C22.4772 86 18 81.5228 18 76V50C18 47.7909 19.7909 46 22 46ZM22 48C20.8954 48 20 48.8954 20 50V76C20 80.4183 23.5817 84 28 84H68C72.4183 84 76 80.4183 76 76V50C76 48.8954 75.1046 48 74 48H22Z" fill="#E69A06"/>
<path d="M20 46H76V58H20V46Z" fill="#E2B130"/>
<path d="M69.5973 63.7162C69.5973 64.2518 69.163 64.6861 68.6274 64.6861C68.0918 64.6861 67.6575 64.2518 67.6575 63.7162C67.6575 63.1806 68.0918 62.7463 68.6274 62.7463C69.163 62.7463 69.5973 63.1806 69.5973 63.7162Z" fill="#E88E07"/>
<path d="M71.3875 80.1552C71.3875 80.6908 70.9533 81.125 70.4177 81.125C69.882 81.125 69.4478 80.6908 69.4478 80.1552C69.4478 79.6195 69.882 79.1853 70.4177 79.1853C70.9533 79.1853 71.3875 79.6195 71.3875 80.1552Z" fill="#E88E07"/>
<path d="M73.5251 65.9954C73.5251 66.7185 72.939 67.3047 72.2159 67.3047C71.4927 67.3047 70.9066 66.7185 70.9066 65.9954C70.9066 65.2723 71.4927 64.6861 72.2159 64.6861C72.939 64.6861 73.5251 65.2723 73.5251 65.9954Z" fill="#E88E07"/>
<path d="M72.8705 61.7401C72.8705 62.2825 72.4309 62.7221 71.8885 62.7221C71.3462 62.7221 70.9066 62.2825 70.9066 61.7401C70.9066 61.1978 71.3462 60.7582 71.8885 60.7582C72.4309 60.7582 72.8705 61.1978 72.8705 61.7401Z" fill="#E88E07"/>
<path d="M73.6688 71.6205C73.6688 72.7453 72.7569 73.6572 71.6321 73.6572C70.5073 73.6572 69.5954 72.7453 69.5954 71.6205C69.5954 70.4957 70.5073 69.5838 71.6321 69.5838C72.7569 69.5838 73.6688 70.4957 73.6688 71.6205Z" fill="#E88E07"/>
<path d="M69.5972 67.9593C69.5972 68.6824 69.011 69.2686 68.2879 69.2686C67.5648 69.2686 66.9786 68.6824 66.9786 67.9593C66.9786 67.2362 67.5648 66.65 68.2879 66.65C69.011 66.65 69.5972 67.2362 69.5972 67.9593Z" fill="#E88E07"/>
<path d="M74 76.9308C74 77.6539 73.4138 78.2401 72.6907 78.2401C71.9676 78.2401 71.3814 77.6539 71.3814 76.9308C71.3814 76.2077 71.9676 75.6215 72.6907 75.6215C73.4138 75.6215 74 76.2077 74 76.9308Z" fill="#E88E07"/>
<path d="M70.2159 75.8635C70.2159 76.3022 69.8603 76.6578 69.4216 76.6578C68.983 76.6578 68.6274 76.3022 68.6274 75.8635C68.6274 75.4249 68.983 75.0693 69.4216 75.0693C69.8603 75.0693 70.2159 75.4249 70.2159 75.8635Z" fill="#E88E07"/>
<path d="M67.4617 78.3609C67.4617 79.084 66.8755 79.6702 66.1524 79.6702C65.4293 79.6702 64.8431 79.084 64.8431 78.3609C64.8431 77.6378 65.4293 77.0516 66.1524 77.0516C66.8755 77.0516 67.4617 77.6378 67.4617 78.3609Z" fill="#E88E07"/>
<path d="M67.6575 73.8996C67.6575 74.6227 67.0713 75.2089 66.3482 75.2089C65.6251 75.2089 65.0389 74.6227 65.0389 73.8996C65.0389 73.1765 65.6251 72.5903 66.3482 72.5903C67.0713 72.5903 67.6575 73.1765 67.6575 73.8996Z" fill="#E88E07"/>
<path d="M62.8568 80.143C62.8568 80.6854 62.4172 81.125 61.8748 81.125C61.3325 81.125 60.8929 80.6854 60.8929 80.143C60.8929 79.6007 61.3325 79.1611 61.8748 79.1611C62.4172 79.1611 62.8568 79.6007 62.8568 80.143Z" fill="#E88E07"/>
<path d="M12 41C12 36.5817 15.5817 33 20 33H76C80.4183 33 84 36.5817 84 41V49C84 50.1046 83.1046 51 82 51H14C12.8954 51 12 50.1046 12 49V41Z" fill="#FDD546"/>
<path fill-rule="evenodd" clip-rule="evenodd" d="M20 31H76C81.5229 31 86 35.4772 86 41V49C86 51.2091 84.2091 53 82 53H14C11.7909 53 10 51.2091 10 49V41C10 35.4772 14.4772 31 20 31ZM20 33C15.5817 33 12 36.5817 12 41V49C12 50.1046 12.8954 51 14 51H82C83.1046 51 84 50.1046 84 49V41C84 36.5817 80.4183 33 76 33H20Z" fill="#F2B413"/>
<path fill-rule="evenodd" clip-rule="evenodd" d="M12.2676 50C12.6134 50.5978 13.2597 51 14 51H82C83.1046 51 84 50.1046 84 49V41C84 37.4691 81.7126 34.4725 78.5387 33.4112C80.6297 34.8543 82 37.2671 82 40V48C82 49.1046 81.1046 50 80 50H12.2676Z" fill="#EFC632"/>
<path d="M42 31H54V86H42V31Z" fill="#E33030"/>
<path d="M44.25 33H51.3103V82.25H44.25V33Z" fill="#FF4646"/>
<path fill-rule="evenodd" clip-rule="evenodd" d="M46.25 37C46.8023 37 47.25 37.4477 47.25 38V53.5C47.25 54.0523 46.8023 54.5 46.25 54.5C45.6977 54.5 45.25 54.0523 45.25 53.5V38C45.25 37.4477 45.6977 37 46.25 37Z" fill="#FF8282"/>
<path d="M28.1277 37.0786C29.0423 39.6109 23.4409 38.1274 21.8125 40.4375C19.125 44.25 15.2869 44.5788 14.3723 42.0465C13.4578 39.5142 14.8891 36.2469 18.6875 34.875C22.4859 33.5032 27.2131 34.5463 28.1277 37.0786Z" fill="#FFE68F"/>
<path fill-rule="evenodd" clip-rule="evenodd" d="M32.3154 33.2528C39.0468 36.337 46.364 35.5777 48.6588 31.5569C50.9537 27.5362 47.3571 21.7765 40.6257 18.6924C33.8942 15.6083 26.577 16.3676 24.2822 20.3883C21.9874 24.4091 25.584 30.1687 32.3154 33.2528ZM36.462 29.8175C40.5831 31.7057 44.949 31.4404 46.2135 29.2249C47.4779 27.0095 45.1621 23.6828 41.041 21.7947C36.9198 19.9065 32.5539 20.1718 31.2895 22.3872C30.025 24.6027 32.3408 27.9293 36.462 29.8175Z" fill="#E33030"/>
<path fill-rule="evenodd" clip-rule="evenodd" d="M28.6621 18.2581C29.0028 18.6928 28.9266 19.3214 28.4919 19.6621C27.8395 20.1734 27.0236 21.1274 26.6953 22.2674C26.388 23.3347 26.4779 24.6468 27.7499 26.0884C30.5677 29.2819 34.5134 30.7155 36.0665 31.0185C36.6086 31.1243 36.9623 31.6495 36.8565 32.1915C36.7507 32.7336 36.2256 33.0873 35.6835 32.9815C33.82 32.6179 29.4324 31.0181 26.2502 27.4116C24.5221 25.4532 24.2787 23.432 24.7734 21.7139C25.2473 20.0684 26.3689 18.7849 27.2581 18.088C27.6928 17.7473 28.3214 17.8235 28.6621 18.2581Z" fill="#C42323"/>
<path fill-rule="evenodd" clip-rule="evenodd" d="M63.4986 33.1448C56.7672 36.2289 49.45 35.4696 47.1552 31.4488C44.8603 27.4281 48.4569 21.6684 55.1883 18.5843C61.9198 15.5002 69.237 16.2595 71.5318 20.2802C73.8266 24.301 70.23 30.0606 63.4986 33.1448ZM59.7372 29.4637C55.6922 31.317 51.4252 31.0885 50.2066 28.9533C48.9879 26.8181 51.2791 23.5847 55.3241 21.7315C59.369 19.8782 63.636 20.1067 64.8547 22.2419C66.0733 24.3771 63.7822 27.6104 59.7372 29.4637Z" fill="#E33030"/>
<path fill-rule="evenodd" clip-rule="evenodd" d="M61.5659 18.4467C61.4495 17.9068 61.7928 17.3748 62.3327 17.2584C63.0703 17.0994 64.2182 17.0474 65.3935 17.3725C66.5909 17.7036 67.8573 18.441 68.6902 19.8845C69.581 21.4283 69.3467 23.1167 68.7174 24.4866C68.0906 25.8509 67.0154 27.0457 65.9297 27.7695C65.4702 28.0759 64.8493 27.9517 64.543 27.4922C64.2366 27.0327 64.3608 26.4118 64.8203 26.1054C65.6096 25.5793 66.4337 24.6668 66.9 23.6517C67.3638 22.6422 67.4165 21.6789 66.9579 20.8841C66.4414 19.989 65.6665 19.5231 64.8604 19.3001C64.0322 19.0711 63.2145 19.1142 62.7542 19.2135C62.2144 19.3299 61.6823 18.9866 61.5659 18.4467Z" fill="#FF4444"/>
<path fill-rule="evenodd" clip-rule="evenodd" d="M21.2496 36.1738C21.2658 36.7258 20.8314 37.1865 20.2794 37.2027C19.0617 37.2385 18.1987 38.0767 17.6262 38.8782C17.3052 39.3276 16.6807 39.4317 16.2312 39.1106C15.7818 38.7896 15.6777 38.1651 15.9988 37.7157C16.6763 36.7671 18.0383 35.2678 20.2206 35.2036C20.7726 35.1874 21.2333 35.6217 21.2496 36.1738Z" fill="white"/>
</svg>
